<?xml version="1.0" encoding="UTF-8"?><!DOCTYPE svg PUBLIC "-//W3C//DTD SVG 1.1//EN" "http://www.w3.org/Graphics/SVG/1.1/DTD/svg11.dtd"><svg xmlns="http://www.w3.org/2000/svg"><defs><style>.cls-1{fill:#383737;fill-rule:evenodd}</style><style>.cls-1{fill:#383737;fill-rule:evenodd}</style><style>.cls-1{fill:#c6ccd2;fill-rule:evenodd}</style><style>.cls-1{fill:#fff;fill-rule:evenodd}</style><style>.cls-1{fill:#fff;fill-rule:evenodd}</style><style>.cls-1{fill:#c6ccd2;fill-rule:evenodd}</style><style>.cls-1{fill:#fff;fill-rule:evenodd}</style></defs><symbol id="arrow-down" viewBox="0 0 451.847 451.847"><path d="M225.923 354.706c-8.098 0-16.195-3.092-22.369-9.263L9.27 151.157c-12.359-12.359-12.359-32.397 0-44.751 12.354-12.354 32.388-12.354 44.748 0l171.905 171.915 171.906-171.909c12.359-12.354 32.391-12.354 44.744 0 12.365 12.354 12.365 32.392 0 44.751L248.292 345.449c-6.177 6.172-14.274 9.257-22.369 9.257z" fill="#FFF"/></symbol><symbol id="dark-e-mail" viewBox="0 0 20 14"><path id="E-mail_Icon" data-name="E-mail Icon" class="cls-1" d="M504.432 726.221a.517.517 0 0 0-.294.091s-8.359 7.085-8.43 7.137a1.186 1.186 0 0 1-1.436 0c-.069-.051-8.425-7.134-8.425-7.134a.526.526 0 0 0-.294-.09.587.587 0 0 0-.563.607v9.818a1.32 1.32 0 0 0 1.266 1.367h17.473a1.319 1.319 0 0 0 1.265-1.367v-9.818a.586.586 0 0 0-.562-.611zm-10.02 5.571a.941.941 0 0 0 1.179 0l8.077-6.675.132-.117a.632.632 0 0 0 .141-.4.587.587 0 0 0-.563-.608h-16.754a.586.586 0 0 0-.562.608.623.623 0 0 0 .17.435z" transform="translate(-485 -724)"/></symbol><symbol id="dark-padlock" viewBox="0 0 14 18"><path id="Lock_Icon" data-name="Lock Icon" class="cls-1" d="M500.741 799.905q-.037 0-.072-.009a.617.617 0 0 1-.548-.58v-1.79c0-2.5-2.294-4.519-5.125-4.519s-5.125 2.023-5.125 4.519v1.79a.616.616 0 0 1-.547.58q-.034.006-.072.009a1.362 1.362 0 0 0-1.252 1.284v8.5a1.4 1.4 0 0 0 1.474 1.3h11.043a1.4 1.4 0 0 0 1.474-1.3v-8.5a1.363 1.363 0 0 0-1.25-1.284zm-8.4-2.379a2.676 2.676 0 0 1 5.31 0v1.774a.635.635 0 0 1-.671.59h-3.968a.635.635 0 0 1-.671-.59v-1.773z" transform="translate(-488 -793)"/></symbol><symbol id="e-mail-envelope" viewBox="0 0 20 14"><path id="E-mail_Icon" data-name="E-mail Icon" class="cls-1" d="M184.432 290.221a.519.519 0 0 0-.294.091s-8.359 7.085-8.43 7.138a1.188 1.188 0 0 1-1.436 0c-.069-.051-8.425-7.134-8.425-7.134a.526.526 0 0 0-.294-.09.587.587 0 0 0-.563.607v9.818a1.32 1.32 0 0 0 1.266 1.367h17.473a1.319 1.319 0 0 0 1.265-1.367v-9.818a.586.586 0 0 0-.562-.612zm-10.02 5.571a.941.941 0 0 0 1.179 0l8.077-6.675.132-.117a.632.632 0 0 0 .141-.4.586.586 0 0 0-.563-.607h-16.754a.586.586 0 0 0-.562.607.623.623 0 0 0 .17.435z" transform="translate(-165 -288)"/></symbol><symbol id="fb" viewBox="0 0 6 14"><path id="Facebook_Logo" data-name="Facebook Logo" class="cls-1" d="M170.99 1007.99h-2.665V1001h-1.332v-2.416h1.332v-1.447c0-1.967.752-3.137 2.888-3.137h1.779v2.412h-1.111c-.832 0-.888.337-.888.966v1.206h2.015l-.239 2.416h-1.779v6.99z" transform="translate(-167 -994)"/></symbol><symbol id="forward" viewBox="0 0 8 14"><path id="Forward_Icon" data-name="Forward Icon" class="cls-1" d="M1019.73 1011.27a.96.96 0 0 1 0 1.35l-6.11 6.11a.955.955 0 1 1-1.35-1.35l6.11-6.11a.96.96 0 0 1 1.35 0zm-7.46-6a.96.96 0 0 0 0 1.35l6.11 6.11a.955.955 0 1 0 1.35-1.35l-6.11-6.11a.96.96 0 0 0-1.35 0z" transform="translate(-1012 -1005)"/></symbol><symbol id="open" viewBox="0 0 492.004 492.004"><path d="M382.678 226.804L163.73 7.86C158.666 2.792 151.906 0 144.698 0s-13.968 2.792-19.032 7.86l-16.124 16.12c-10.492 10.504-10.492 27.576 0 38.064L293.398 245.9l-184.06 184.06c-5.064 5.068-7.86 11.824-7.86 19.028 0 7.212 2.796 13.968 7.86 19.04l16.124 16.116c5.068 5.068 11.824 7.86 19.032 7.86s13.968-2.792 19.032-7.86L382.678 265c5.076-5.084 7.864-11.872 7.848-19.088.016-7.244-2.772-14.028-7.848-19.108z"/></symbol><symbol id="padlock" viewBox="0 0 14 18"><path id="Lock_Icon" data-name="Lock Icon" class="cls-1" d="M180.741 363.905q-.037 0-.072-.009a.617.617 0 0 1-.548-.581v-1.789c0-2.5-2.294-4.519-5.124-4.519s-5.126 2.023-5.126 4.519v1.789a.616.616 0 0 1-.547.581q-.035.006-.072.009a1.362 1.362 0 0 0-1.252 1.284v8.5a1.4 1.4 0 0 0 1.474 1.3h11.043a1.4 1.4 0 0 0 1.474-1.3v-8.5a1.363 1.363 0 0 0-1.25-1.284zm-8.4-2.379a2.676 2.676 0 0 1 5.31 0v1.774a.635.635 0 0 1-.671.59h-3.968a.635.635 0 0 1-.671-.59v-1.773z" transform="translate(-168 -357)"/></symbol><symbol id="tw" viewBox="0 0 14 11"><path id="Twitter_Logo" data-name="Twitter Logo" class="cls-1" d="M314 997.3a5.89 5.89 0 0 1-1.65.438 2.806 2.806 0 0 0 1.263-1.537 5.893 5.893 0 0 1-1.824.674 2.914 2.914 0 0 0-2.1-.877 2.826 2.826 0 0 0-2.872 2.777 2.658 2.658 0 0 0 .075.634 8.25 8.25 0 0 1-5.921-2.9 2.7 2.7 0 0 0-.388 1.4 2.749 2.749 0 0 0 1.277 2.31 2.91 2.91 0 0 1-1.3-.345v.034a2.793 2.793 0 0 0 2.3 2.721 2.7 2.7 0 0 1-.756.1 3.191 3.191 0 0 1-.541-.05 2.866 2.866 0 0 0 2.683 1.93 5.856 5.856 0 0 1-3.567 1.19 5.165 5.165 0 0 1-.685-.04 8.317 8.317 0 0 0 4.4 1.25 7.976 7.976 0 0 0 8.172-7.9c0-.121 0-.241-.008-.36A5.726 5.726 0 0 0 314 997.3z" transform="translate(-300 -996)"/></symbol></svg>