<?xml version="1.0" encoding="iso-8859-1"?>
<!-- Generator: Adobe Illustrator 18.1.1, SVG Export Plug-In . SVG Version: 6.00 Build 0)  -->
<svg version="1.1" id="Capa_1" xmlns="http://www.w3.org/2000/svg" xmlns:xlink="http://www.w3.org/1999/xlink" x="0px" y="0px"
	 viewBox="0 0 90 90" style="enable-background:new 0 0 90 90;" xml:space="preserve">
<g>
	<g>
		<path style="fill:#030104;" d="M20.379,10.252c0,5.315-3.924,9.62-10.381,9.62C3.924,19.872,0,15.568,0,10.252
			c0-5.443,4.051-9.621,10.252-9.621C16.455,0.631,20.254,4.809,20.379,10.252z M0.506,89.368V27.468h19.242v61.901H0.506z"/>
		<path style="fill:#030104;" d="M31.262,47.215c0-7.721-0.252-14.176-0.504-19.747h16.707l0.889,8.608h0.379
			c2.531-4.053,8.734-10.002,19.115-10.002C80.506,26.074,90,34.556,90,52.784v36.585H70.758V55.063
			c0-7.976-2.785-13.417-9.748-13.417c-5.316,0-8.479,3.67-9.871,7.215c-0.508,1.265-0.635,3.038-0.635,4.811v35.697H31.262V47.215z
			"/>
	</g>
</g>
<g>
</g>
<g>
</g>
<g>
</g>
<g>
</g>
<g>
</g>
<g>
</g>
<g>
</g>
<g>
</g>
<g>
</g>
<g>
</g>
<g>
</g>
<g>
</g>
<g>
</g>
<g>
</g>
<g>
</g>
</svg>
